<svg width="30" height="32" viewBox="0 0 30 32" fill="none" xmlns="http://www.w3.org/2000/svg">
<path fill-rule="evenodd" clip-rule="evenodd" d="M28.1326 19.9064C28.6624 21.0013 29.0862 21.9197 29.3334 22.6967C31.1348 27.6451 27.4261 31.993 22.9369 31.9894C22.9016 31.9894 22.7604 31.9894 22.5837 31.9541H22.0892C19.7581 31.6716 17.3528 30.1846 14.9158 27.5356C12.4786 30.1881 10.0734 31.6716 7.74219 31.9541H7.24768C7.07117 31.9894 6.92981 31.9894 6.89453 31.9894C2.4054 31.9894 -1.30322 27.6451 0.498047 22.6967C0.533447 22.5908 0.674683 22.2375 0.957275 21.5665L1.69897 19.9418V19.8711C4.20667 14.5342 6.54138 9.73071 8.76648 5.41815L8.87244 5.20618C10.2853 2.27112 11.6663 0.0106201 14.9158 0.0106201C18.204 0.0106201 19.3342 1.95679 20.9237 5.20618L21.0649 5.41815C23.2902 9.73071 25.6248 14.5342 28.1326 19.8711V19.9064ZM27.7087 25.8791C27.4614 27.5391 26.3312 28.9166 24.7771 29.5877C21.7749 30.8945 18.8044 28.8107 16.2615 25.985C20.468 20.7188 21.2451 16.6217 19.4403 13.9691C18.3806 12.4504 16.8619 11.7087 14.9158 11.7087C10.9952 11.7087 8.83716 15.0287 9.68481 18.8821C10.1793 20.9661 11.4862 23.3361 13.5701 25.985C12.2632 27.4332 11.027 28.4575 9.93213 29.0932C9.08435 29.5524 8.27209 29.8349 7.495 29.9056C3.92761 30.4354 1.13391 26.974 2.4054 23.4031C2.58203 22.944 2.93518 22.0963 3.53564 20.7894L3.57092 20.7188C5.51355 16.4769 7.88354 11.6733 10.6031 6.33649L10.6738 6.15985L11.4508 4.67645L11.5146 4.56C12.0701 3.54559 12.333 3.06531 13.2522 2.48657C13.7113 2.20404 14.2765 2.06274 14.9122 2.06274C16.1837 2.06274 17.1727 2.80444 17.5966 3.40491C17.764 3.65601 17.9534 3.97321 18.1823 4.35651L18.1833 4.35846L18.3735 4.67645L19.1154 6.12457L19.2213 6.33649C21.9409 11.6733 24.3109 16.4769 26.2535 20.7188L26.2888 20.7542L26.9952 22.3788L27.4191 23.4031C27.744 24.2191 27.8147 25.0314 27.7087 25.8791ZM14.9158 24.3603C13.1144 22.0998 12.0548 20.1183 11.7015 18.423C11.3484 17.0455 11.4896 15.9506 12.0901 15.1382C12.7258 14.1846 13.6796 13.7254 14.9158 13.7254C16.152 13.7254 17.1056 14.1846 17.7413 15.1382C18.3418 15.9506 18.483 17.0455 18.1299 18.423C17.7413 20.1537 16.6818 22.1316 14.9158 24.3603Z" fill="#FF5A5F"/>
</svg>
